<svg width="94" height="54" viewBox="0 0 94 54" fill="none" xmlns="http://www.w3.org/2000/svg">
<path fill-rule="evenodd" clip-rule="evenodd" d="M59.7324 14.1624C51.9797 13.4615 44.4291 18.1927 40.0745 26.3525C40.0745 26.3548 40.0745 26.3572 40.0745 26.3572L25.3163 53.595C26.1435 53.6634 38.8548 53.9985 43.0661 46.4664L53.0631 28.6272L60.797 14.3157L59.7348 14.1624H59.7324Z" fill="white"/>
<path d="M80.3892 3.52491C78.7958 2.63059 77.1508 1.92033 75.4753 1.38468C75.4588 1.37996 75.44 1.37524 75.4259 1.37524C74.6269 1.1204 73.7339 1.45075 73.2991 2.20821L68.2607 11.2246L68.0515 11.5974C67.6849 12.2015 67.6943 12.9802 68.122 13.5394C68.4816 14.0137 68.9516 14.2544 69.4286 14.3087C70.8386 14.5423 72.2346 15.0189 73.5529 15.7599C79.6606 19.1861 81.8321 26.94 78.4057 33.0705C76.0252 37.3297 71.5531 39.6823 67.0058 39.5761C65.0411 39.5077 63.0648 38.9815 61.2364 37.9432C59.9204 37.1976 58.7901 36.249 57.8571 35.1612C57.5657 34.7789 57.1145 34.5028 56.5247 34.4391C55.8267 34.3636 55.1593 34.7624 54.8373 35.3877L54.6728 35.6803L49.578 44.7698C49.1597 45.5343 49.343 46.4735 49.9751 47.0256C49.9845 47.0374 49.9963 47.0492 50.0104 47.0634C51.3381 48.222 52.7975 49.2626 54.3861 50.164C57.4717 51.9149 60.7594 52.9791 64.0706 53.4039C74.4882 54.6734 85.1315 49.6614 90.5859 39.9018C97.7887 27.0155 93.2226 10.7243 80.3892 3.52491Z" fill="white"/>
<path d="M13.6109 50.1735C15.2042 51.0678 16.8492 51.778 18.5248 52.3137C18.5412 52.3184 18.56 52.3231 18.5741 52.3231C19.3731 52.578 20.2661 52.2476 20.7009 51.4902L25.7393 42.4738L25.9485 42.101C26.3151 41.4969 26.3057 40.7182 25.878 40.159C25.5184 39.6847 25.0484 39.444 24.5714 39.3897C23.1614 39.1561 21.7654 38.6794 20.4471 37.9385C14.3394 34.5122 12.1679 26.7583 15.5943 20.6279C17.9748 16.3687 22.4469 14.0161 26.9942 14.1222C28.9589 14.1907 30.9352 14.7169 32.7636 15.7551C34.0796 16.5008 35.2099 17.4494 36.1429 18.5372C36.4343 18.9195 36.8855 19.1956 37.4754 19.2593C38.1733 19.3348 38.8407 18.936 39.1627 18.3107L39.3272 18.0181L44.422 8.92858C44.8403 8.16405 44.657 7.22489 44.0249 6.67273C44.0155 6.66093 44.0037 6.64913 43.9896 6.63497C42.6619 5.47637 41.2025 4.43575 39.6139 3.53435C36.5283 1.78347 33.2406 0.719249 29.9294 0.294507C19.5118 -0.975002 8.8685 4.03696 3.4141 13.7942C-3.78873 26.6805 0.777369 42.9717 13.6109 50.1711V50.1735Z" fill="white"/>
<path fill-rule="evenodd" clip-rule="evenodd" d="M49.256 10.0801L47.7332 12.8386C52.5414 10.8376 58.2519 9.63648 62.9379 10.3845L68.5967 0.0774162C68.5967 0.0774162 66.3571 -0.205746 63.0742 0.311025C57.2156 1.22894 52.1325 4.87465 49.256 10.0825V10.0801Z" fill="white"/>
</svg>
